HIERARCHY
ROOT Hips
{
    OFFSET 0.000000 0.000000 0.000000
    CHANNELS 6 Xposition Yposition Zposition Zrotation Xrotation Yrotation
    JOINT Spine
    {
        OFFSET -0.000000 7.246840 0.000000
        CHANNELS 3 Zrotation Xrotation Yrotation
        JOINT Spine1
        {
            OFFSET -0.000000 20.289354 0.000000
            CHANNELS 3 Zrotation Xrotation Yrotation
            JOINT Neck
            {
                OFFSET -0.000000 20.206032 1.836912
                CHANNELS 3 Zrotation Xrotation Yrotation
                JOINT Head
                {
                    OFFSET -0.000000 12.372654 -1.767522
                    CHANNELS 3 Zrotation Xrotation Yrotation
                    End Site
                    {
                        OFFSET -0.000000 22.094025 0.000000
                    }
                }
            }
            JOINT LeftShoulder
            {
                OFFSET 3.465871 17.201674 -0.568930
                CHANNELS 3 Zrotation Xrotation Yrotation
                JOINT LeftArm
                {
                    OFFSET 14.070313 0.000000 0.000000
                    CHANNELS 3 Zrotation Xrotation Yrotation
                    JOINT LeftForeArm
                    {
                        OFFSET 26.549477 0.000000 0.000000
                        CHANNELS 3 Zrotation Xrotation Yrotation
                        JOINT LeftHand
                        {
                            OFFSET 18.880413 0.000000 0.000000
                            CHANNELS 3 Zrotation Xrotation Yrotation
                            End Site
                            {
                                OFFSET 13.256415 0.000000 0.000000
                            }
                        }
                    }
                }
            }
            JOINT RightShoulder
            {
                OFFSET -3.526370 17.201674 -0.568930
                CHANNELS 3 Zrotation Xrotation Yrotation
                JOINT RightArm
                {
                    OFFSET -14.070313 0.000000 0.000000
                    CHANNELS 3 Zrotation Xrotation Yrotation
                    JOINT RightForeArm
                    {
                        OFFSET -26.549477 0.000000 0.000000
                        CHANNELS 3 Zrotation Xrotation Yrotation
                        JOINT RightHand
                        {
                            OFFSET -18.880413 0.000000 0.000000
                            CHANNELS 3 Zrotation Xrotation Yrotation
                            End Site
                            {
                                OFFSET -13.256415 0.000000 0.000000
                            }
                        }
                    }
                }
            }
        }
    }
    JOINT LeftUpLeg
    {
        OFFSET 8.837609 0.000000 0.000000
        CHANNELS 3 Zrotation Xrotation Yrotation
        JOINT LeftLeg
        {
            OFFSET -0.000000 -41.345005 0.000000
            CHANNELS 3 Zrotation Xrotation Yrotation
            JOINT LeftFoot
            {
                OFFSET -0.000000 -35.500874 0.000000
                CHANNELS 3 Zrotation Xrotation Yrotation
                JOINT LeftToeBase
                {
                    OFFSET -0.000000 -5.744446 13.256415
                    CHANNELS 3 Zrotation Xrotation Yrotation
                    End Site
                    {
                        OFFSET -0.000000 0.000000 3.535044
                    }
                }
            }
        }
    }
    JOINT RightUpLeg
    {
        OFFSET -8.837609 0.000000 0.000000
        CHANNELS 3 Zrotation Xrotation Yrotation
        JOINT RightLeg
        {
            OFFSET -0.000000 -41.345005 0.000000
            CHANNELS 3 Zrotation Xrotation Yrotation
            JOINT RightFoot
            {
                OFFSET -0.000000 -35.500874 0.000000
                CHANNELS 3 Zrotation Xrotation Yrotation
                JOINT RightToeBase
                {
                    OFFSET -0.000000 -5.744446 13.256415
                    CHANNELS 3 Zrotation Xrotation Yrotation
                    End Site
                    {
                        OFFSET -0.000000 0.000000 3.535044
                    }
                }
            }
        }
    }
}
MOTION
Frames:    4
Frame Time:    0.010000
6.446646    82.633354    -72.688248    3.279897    3.096057    -0.186688    -1.846962    -13.032917    -0.184821    1.441275    -0.082200    0.029726    1.031402    36.516354    -3.045273    -0.558518    -14.042990    -3.102711    20.988081    3.828473    7.149140    -28.243055    3.064758    -7.552358    0.000000    0.000000    0.000000    0.000000    0.000000    0.000000    -16.334188    1.360530    11.529184    14.801371    -1.395089    8.467435    -1.414834    -5.502244    -2.731397    13.130818    -3.508958    17.526957    -4.043017    7.162715    -4.130732    -2.451946    -8.242458    -6.686573    7.976664    2.649360    -1.695100    0.844044    -4.076083    -1.211919    -4.219094    2.203071    4.019458    5.180380    -0.604727    4.058939    0.000000    0.000000    0.000000    0.000000    0.000000    0.000000    
6.451232    82.631668    -72.681961    3.285526    3.096029    -0.170191    -1.857448    -13.033932    -0.190088    1.451465    -0.084619    0.026083    1.009951    36.516582    -3.032400    -0.512680    -14.028727    -3.081676    20.998539    3.823369    7.146684    -28.252380    3.053143    -7.561544    0.000000    0.000000    0.000000    0.000000    0.000000    0.000000    -16.334846    1.367607    11.517289    14.787559    -1.383583    8.465411    -1.422569    -5.529066    -2.738751    13.101860    -3.538236    17.547415    -4.048571    7.161146    -4.147082    -2.441267    -8.238543    -6.757826    7.955617    2.657347    -1.661414    0.873426    -4.021217    -1.253662    -4.226803    2.215276    4.015752    5.176930    -0.614779    4.040360    0.000000    0.000000    0.000000    0.000000    0.000000    0.000000    
6.455424    82.631233    -72.674728    3.282351    3.098926    -0.158997    -1.852743    -13.045841    -0.194730    1.452745    -0.078217    0.020487    1.014209    36.521767    -3.025388    -0.509229    -14.023365    -3.072512    21.015036    3.830288    7.153762    -28.263357    3.020503    -7.582917    0.000000    0.000000    0.000000    0.000000    0.000000    0.000000    -16.329947    1.363712    11.514969    14.774156    -1.361043    8.459060    -1.437378    -5.544005    -2.744871    13.090005    -3.555698    17.545689    -4.039655    7.159207    -4.166694    -2.471827    -8.220291    -6.709096    8.005878    2.635236    -1.666960    0.883368    -3.981707    -1.267608    -4.227875    2.220019    4.016886    5.180300    -0.611666    4.044277    0.000000    0.000000    0.000000    0.000000    0.000000    0.000000    
6.460922    82.630112    -72.668190    3.284784    3.098106    -0.145017    -1.855278    -13.051382    -0.198254    1.459167    -0.070586    0.016524    1.000871    36.552467    -3.004942    -0.463112    -14.082264    -3.041823    21.000319    3.850222    7.141578    -28.241955    2.971399    -7.580388    0.000000    0.000000    0.000000    0.000000    0.000000    0.000000    -16.334414    1.371624    11.507337    14.766238    -1.364417    8.450350    -1.445474    -5.559941    -2.745155    13.062587    -3.575688    17.549795    -4.035589    7.164514    -4.215347    -2.489129    -8.218471    -6.677640    8.009511    2.635730    -1.643793    0.889612    -3.957056    -1.276363    -4.233503    2.225099    4.002344    5.182980    -0.606707    4.061385    0.000000    0.000000    0.000000    0.000000    0.000000    0.000000    
